{"title":"Amara Kaaviyam (2014) DVD Scr XviD MP3 700MB - Shammu","uid":10991285,"size":723785012,"categoryP":"video","categoryS":"movies","magnet":"?xt=urn:btih:9950fd3db9f1f745c6ed953b53ad53373b219410&amp;dn=Amara+Kaaviyam+%282014%29+DVD+Scr+XviD+MP3+700MB+-+Shammu&amp;tr=udp%3A%2F%2Ftracker.openbittorrent.com%3A80&amp;tr=udp%3A%2F%2Fopen.demonii.com%3A1337&amp;tr=udp%3A%2F%2Ftracker.coppersurfer.tk%3A6969&amp;tr=udp%3A%2F%2Fexodus.desync.com%3A6969","seeders":1,"leechers":0,"uploader":"TeamXDN","files":-1,"time":1410012846,"description":"Amara Kaaviyam (2014) DVD Scr XviD MP3 700MB - Shammu\n\nFormat                                   : AVI\nFormat/Info                              : Audio Video Interleave\nFile size                                : 690 MiB\nDuration                                 : 2h 22mn\nOverall bit rate                         : 678 Kbps\n\nVideo\nID                                       : 0\nFormat                                   : MPEG-4 Visual\nFormat profile                           : Advanced Simple@L5\nFormat settings, BVOP                    : 2\nFormat settings, QPel                    : No\nFormat settings, GMC                     : No warppoints\nFormat settings, Matrix                  : Default (H.263)\nCodec ID                                 : XVID\nCodec ID/Hint                            : XviD\nDuration                                 : 2h 22mn\nBit rate                                 : 590 Kbps\nWidth                                    : 608 pixels\nHeight                                   : 252 pixels\nDisplay aspect ratio                     : 2.40:1\nFrame rate                               : 29.970 fps\nColor space                              : YUV\nChroma subsampling                       : 4:2:0\nBit depth                                : 8 bits\nScan type                                : Progressive\nCompression mode                         : Lossy\nBits/(Pixel*Frame)                       : 0.129\nStream size                              : 601 MiB (87%)\nWriting library                          : XviD 1.2.1 (UTC 2008-12-04)\n\nAudio\nID                                       : 1\nFormat                                   : MPEG Audio\nFormat version                           : Version 1\nFormat profile                           : Layer 3\nMode                                     : Joint stereo\nMode extension                           : MS Stereo\nCodec ID                                 : 55\nCodec ID/Hint                            : MP3\nDuration                                 : 2h 22mn\nBit rate mode                            : Constant\nBit rate                                 : 80.0 Kbps\nChannel(s)                               : 2 channels\nSampling rate                            : 44.1 KHz\nCompression mode                         : Lossy\nStream size                              : 81.5 MiB (12%)\nAlignment                                : Aligned on interleaves\nInterleave, duration                     : 133 ms (4.00 video frames)\nInterleave, preload duration             : 209 ms\nTitle                                    : VTS_01_1 T80 2_0ch 320Kbps DELAY 0ms\n\n","torrent":{"xt":"urn:btih:9950fd3db9f1f745c6ed953b53ad53373b219410","amp;dn":"Amara+Kaaviyam+%282014%29+DVD+Scr+XviD+MP3+700MB+-+Shammu","amp;tr":["udp%3A%2F%2Ftracker.openbittorrent.com%3A80","udp%3A%2F%2Fopen.demonii.com%3A1337","udp%3A%2F%2Ftracker.coppersurfer.tk%3A6969","udp%3A%2F%2Fexodus.desync.com%3A6969"],"infoHash":"9950fd3db9f1f745c6ed953b53ad53373b219410","infoHashBuffer":{"type":"Buffer","data":[153,80,253,61,185,241,247,69,198,237,149,59,83,173,83,55,59,33,148,16]},"announce":[],"urlList":[]}}